<svg width="25" height="25" viewBox="0 0 25 25" fill="none" xmlns="http://www.w3.org/2000/svg">
<path d="M12.5 0.515625C5.81055 0.515625 0.390625 5.93555 0.390625 12.625C0.390625 19.3145 5.81055 24.7344 12.5 24.7344C19.1895 24.7344 24.6094 19.3145 24.6094 12.625C24.6094 5.93555 19.1895 0.515625 12.5 0.515625ZM12.5 22.3906C7.08008 22.3906 2.73438 18.0449 2.73438 12.625C2.73438 7.25391 7.08008 2.85938 12.5 2.85938C17.8711 2.85938 22.2656 7.25391 22.2656 12.625C22.2656 18.0449 17.8711 22.3906 12.5 22.3906ZM8.59375 11.8438C9.42383 11.8438 10.1562 11.1602 10.1562 10.2812C10.1562 9.45117 9.42383 8.71875 8.59375 8.71875C7.71484 8.71875 7.03125 9.45117 7.03125 10.2812C7.03125 11.1602 7.71484 11.8438 8.59375 11.8438ZM16.4062 8.71875C15.5273 8.71875 14.8438 9.45117 14.8438 10.2812C14.8438 11.1602 15.5273 11.8438 16.4062 11.8438C17.2363 11.8438 17.9688 11.1602 17.9688 10.2812C17.9688 9.45117 17.2363 8.71875 16.4062 8.71875ZM16.7969 15.75H8.20312C7.51953 15.75 7.03125 16.2871 7.03125 16.9219C7.03125 17.6055 7.51953 18.0938 8.20312 18.0938H16.7969C17.4316 18.0938 17.9688 17.6055 17.9688 16.9219C17.9688 16.2871 17.4316 15.75 16.7969 15.75Z" fill="black"/>
</svg>
