<svg width="13" height="13" viewBox="0 0 13 13" fill="none" xmlns="http://www.w3.org/2000/svg">
<path d="M8.82031 6.25L12.3359 2.73438C12.793 2.3125 12.793 1.60938 12.3359 1.1875L11.5625 0.414062C11.1406 -0.0429688 10.4375 -0.0429688 10.0156 0.414062L6.5 3.92969L2.94922 0.414062C2.52734 -0.0429688 1.82422 -0.0429688 1.40234 0.414062L0.628906 1.1875C0.171875 1.60938 0.171875 2.3125 0.628906 2.73438L4.14453 6.25L0.628906 9.80078C0.171875 10.2227 0.171875 10.9258 0.628906 11.3477L1.40234 12.1211C1.82422 12.5781 2.52734 12.5781 2.94922 12.1211L6.5 8.60547L10.0156 12.1211C10.4375 12.5781 11.1406 12.5781 11.5625 12.1211L12.3359 11.3477C12.793 10.9258 12.793 10.2227 12.3359 9.80078L8.82031 6.25Z" fill="black"/>
</svg>
