<svg width="25" height="25" viewBox="0 0 25 25" fill="none" xmlns="http://www.w3.org/2000/svg">
<path d="M12.5 0.515625C5.81055 0.515625 0.390625 5.93555 0.390625 12.625C0.390625 19.3145 5.81055 24.7344 12.5 24.7344C19.1895 24.7344 24.6094 19.3145 24.6094 12.625C24.6094 5.93555 19.1895 0.515625 12.5 0.515625ZM19.5312 19.4121V13.7969C19.5312 13.1621 18.9941 12.625 18.3594 12.625C17.6758 12.625 17.1875 13.1621 17.1875 13.7969V21.2188C15.7715 21.9512 14.1602 22.3906 12.5 22.3906C10.791 22.3906 9.17969 21.9512 7.8125 21.2188V13.7969C7.8125 13.1621 7.27539 12.625 6.64062 12.625C5.95703 12.625 5.46875 13.1621 5.46875 13.7969V19.4121C3.75977 17.6543 2.73438 15.2617 2.73438 12.625C2.73438 7.25391 7.08008 2.85938 12.5 2.85938C17.8711 2.85938 22.2656 7.25391 22.2656 12.625C22.2656 15.2617 21.1914 17.6543 19.5312 19.4121ZM10.4004 11.5996C10.6445 11.502 10.7422 11.2578 10.6934 11.0137C10.498 9.74414 9.0332 8.91406 7.8125 8.91406C6.54297 8.91406 5.07812 9.74414 4.88281 11.0137C4.83398 11.2578 4.98047 11.502 5.17578 11.5996C5.37109 11.6973 5.66406 11.6973 5.85938 11.502L6.29883 11.1113C7.03125 10.4766 8.54492 10.4766 9.27734 11.1113L9.76562 11.502C9.86328 11.6484 10.1562 11.7461 10.4004 11.5996ZM17.1875 8.91406C15.918 8.91406 14.4531 9.74414 14.2578 11.0137C14.209 11.2578 14.3066 11.502 14.5508 11.5996C14.7461 11.6973 15.0391 11.6973 15.2344 11.502L15.6738 11.1113C16.4062 10.4766 17.9199 10.4766 18.6523 11.1113L19.1406 11.502C19.2383 11.6484 19.5312 11.7461 19.7754 11.5996C20.0195 11.502 20.1172 11.2578 20.0684 11.0137C19.873 9.74414 18.4082 8.91406 17.1875 8.91406ZM12.5 13.4062C10.9863 13.4062 9.76562 14.8223 9.76562 16.5312C9.76562 18.2891 10.9863 19.6562 12.5 19.6562C13.9648 19.6562 15.2344 18.2891 15.2344 16.5312C15.2344 14.8223 13.9648 13.4062 12.5 13.4062Z" fill="black"/>
</svg>
