<svg width="888" height="888" viewBox="0 0 888 888" fill="none" xmlns="http://www.w3.org/2000/svg">
<path d="M406.202 380.401L502.073 333.967C503.062 333.489 504.078 333.104 505.095 332.743C497.738 330.102 489.498 330.479 482.259 333.967L386.387 380.401C377.134 384.943 371.224 394.37 371.224 404.648V575.491H391.038V404.648C391.038 394.37 396.949 384.943 406.202 380.401Z" fill="white"/>
<path d="M583.7 454.769V430.438C583.7 422.643 579.503 415.359 572.819 411.332L547.973 396.594V372.947C547.973 365.068 544.116 357.784 537.521 353.417L511.476 335.936C509.466 334.587 507.319 333.541 505.095 332.743C504.078 333.104 503.061 333.489 502.073 333.967L406.201 380.401C396.948 384.943 391.038 394.37 391.038 404.648V575.491H492.111H492.285V524.17H512.099H512.16L572.478 477.561C579.503 472.076 583.7 463.682 583.7 454.769Z" fill="#FFCC99"/>
<path d="M370.818 633.836V590.569C370.818 582.256 377.584 575.491 385.897 575.491H371.224H366.082C357.769 575.491 351 582.256 351 590.569V633.836C351 642.145 357.769 648.915 366.082 648.915H385.897C377.584 648.915 370.818 642.145 370.818 633.836Z" fill="white"/>
<path d="M492.111 575.491H371.224V404.648C371.224 394.37 377.134 384.943 386.387 380.402L482.259 333.967C491.682 329.425 502.823 330.11 511.476 335.936L537.521 353.417C544.116 357.784 547.973 365.068 547.973 372.947V396.594V432.066C547.973 441.489 542.747 450.058 534.349 454.255L478.062 482.872C470.178 486.899 460.84 486.555 453.301 482.103L418.173 461.194C411.148 457.082 406.862 449.543 406.862 441.404C406.862 435.579 409.264 430.353 413.032 426.496C416.804 422.728 422.115 420.415 427.855 420.415H443.278" stroke="#231F20" stroke-width="9" stroke-miterlimit="10"/>
<path d="M432.308 524.17H512.161L572.479 477.561C579.504 472.076 583.701 463.682 583.701 454.769V430.438C583.701 422.643 579.504 415.359 572.819 411.333L547.973 396.594" stroke="#231F20" stroke-width="9" stroke-miterlimit="10"/>
<path d="M492.285 575.491V524.17" stroke="#231F20" stroke-width="9" stroke-miterlimit="10"/>
<path d="M443.278 396.594V443.288" stroke="#231F20" stroke-width="9" stroke-miterlimit="10"/>
<rect x="343" y="573" width="169" height="72" rx="16" fill="white" stroke="#231F20" stroke-width="8"/>
<rect x="363" y="577" width="145" height="64" rx="10" fill="#66CC99"/>
</svg>
