<svg width="25" height="25" viewBox="0 0 25 25" fill="none" xmlns="http://www.w3.org/2000/svg">
<path d="M12.5 0.515625C5.81055 0.515625 0.390625 5.93555 0.390625 12.625C0.390625 19.3145 5.81055 24.7344 12.5 24.7344C19.1895 24.7344 24.6094 19.3145 24.6094 12.625C24.6094 5.93555 19.1895 0.515625 12.5 0.515625ZM19.3848 19.5586C17.5293 21.4141 15.0879 22.3906 12.5 22.3906C9.86328 22.3906 7.42188 21.4141 5.56641 19.5586C3.71094 17.7031 2.73438 15.2617 2.73438 12.625C2.73438 10.0371 3.71094 7.5957 5.56641 5.74023C7.42188 3.88477 9.86328 2.85938 12.5 2.85938C15.0879 2.85938 17.5293 3.88477 19.3848 5.74023C21.2402 7.5957 22.2656 10.0371 22.2656 12.625C22.2656 15.2617 21.2402 17.7031 19.3848 19.5586ZM16.4062 7.54688C15.2344 7.54688 13.8184 9.01172 13.6719 11.0625C13.623 11.4531 14.1602 11.6484 14.3555 11.2578L14.8438 10.4277C15.2344 9.79297 15.7715 9.40234 16.3574 9.40234C16.9922 9.40234 17.5293 9.79297 17.9199 10.4277L18.3594 11.2578C18.6035 11.6484 19.1406 11.4531 19.0918 11.0625C18.9453 9.01172 17.5293 7.54688 16.4062 7.54688ZM6.5918 11.2578L7.03125 10.4277C7.42188 9.79297 7.95898 9.40234 8.59375 9.40234C9.17969 9.40234 9.7168 9.79297 10.1074 10.4277L10.5957 11.2578C10.791 11.6484 11.3281 11.4531 11.2793 11.0625C11.1328 9.01172 9.7168 7.54688 8.54492 7.54688C7.42188 7.54688 6.00586 9.01172 5.81055 11.0625C5.81055 11.4531 6.34766 11.6484 6.5918 11.2578ZM18.0664 14.1875H6.88477C6.49414 14.1875 6.20117 14.5293 6.25 14.9199C6.5918 17.8496 9.13086 20.0469 12.1582 20.0469H12.793C15.8691 20.0469 18.3594 17.8496 18.7012 14.9199C18.75 14.5293 18.457 14.1875 18.0664 14.1875Z" fill="black"/>
</svg>
